<?xml version="1.0" encoding="UTF-8" standalone="no"?><!DOCTYPE svg PUBLIC "-//W3C//DTD SVG 1.1//EN" "http://www.w3.org/Graphics/SVG/1.1/DTD/svg11.dtd"><!-- Generated by graphviz version 2.40.1 (20161225.0304)
 --><!-- Title: mygraph Pages: 1 --><svg xmlns="http://www.w3.org/2000/svg" xmlns:xlink="http://www.w3.org/1999/xlink" width="396pt" height="260pt" viewBox="0.00 0.00 395.77 260.00">
<g id="graph0" class="graph" transform="scale(1 1) rotate(0) translate(4 256)">
<title>mygraph</title>
<polygon fill="#ffffff" stroke="transparent" points="-4,4 -4,-256 391.7706,-256 391.7706,4 -4,4"/>
<!-- SimpleDBServer -->
<g id="node1" class="node">
<title>SimpleDBServer</title>
<polygon fill="none" stroke="#000000" points="130.1973,-252 18.9057,-252 18.9057,-216 130.1973,-216 130.1973,-252"/>
<text text-anchor="middle" x="74.5515" y="-229.8" font-family="Times,serif" font-size="14.00" fill="#000000">SimpleDBServer</text>
</g>
<!-- @gflags -->
<g id="node2" class="node">
<title>@gflags</title>
<polygon fill="none" stroke="#000000" points="63.1546,-180 -.0516,-180 -.0516,-144 63.1546,-144 63.1546,-180"/>
<text text-anchor="middle" x="31.5515" y="-157.8" font-family="Times,serif" font-size="14.00" fill="#000000">@gflags</text>
</g>
<!-- SimpleDBServer&#45;&gt;@gflags -->
<g id="edge1" class="edge">
<title>SimpleDBServer-&gt;@gflags</title>
<path fill="none" stroke="#000000" d="M63.7008,-215.8314C58.8492,-207.7079 53.0298,-197.9637 47.6835,-189.0118"/>
<polygon fill="#000000" stroke="#000000" points="50.6807,-187.2041 42.5483,-180.4133 44.6709,-190.7933 50.6807,-187.2041"/>
</g>
<!-- SimpleDB -->
<g id="node3" class="node">
<title>SimpleDB</title>
<polygon fill="none" stroke="#000000" points="156.1638,-180 80.9392,-180 80.9392,-144 156.1638,-144 156.1638,-180"/>
<text text-anchor="middle" x="118.5515" y="-157.8" font-family="Times,serif" font-size="14.00" fill="#000000">SimpleDB</text>
</g>
<!-- SimpleDBServer&#45;&gt;SimpleDB -->
<g id="edge2" class="edge">
<title>SimpleDBServer-&gt;SimpleDB</title>
<path fill="none" stroke="#000000" d="M85.6546,-215.8314C90.6189,-207.7079 96.5737,-197.9637 102.0443,-189.0118"/>
<polygon fill="#000000" stroke="#000000" points="105.0709,-190.7712 107.2989,-180.4133 99.0979,-187.121 105.0709,-190.7712"/>
</g>
<!-- SQLParser -->
<g id="node4" class="node">
<title>SQLParser</title>
<polygon fill="none" stroke="#000000" points="152.472,-108 74.631,-108 74.631,-72 152.472,-72 152.472,-108"/>
<text text-anchor="middle" x="113.5515" y="-85.8" font-family="Times,serif" font-size="14.00" fill="#000000">SQLParser</text>
</g>
<!-- SimpleDB&#45;&gt;SQLParser -->
<g id="edge3" class="edge">
<title>SimpleDB-&gt;SQLParser</title>
<path fill="none" stroke="#000000" d="M117.2898,-143.8314C116.755,-136.131 116.1192,-126.9743 115.5249,-118.4166"/>
<polygon fill="#000000" stroke="#000000" points="119.0147,-118.1467 114.8302,-108.4133 112.0315,-118.6317 119.0147,-118.1467"/>
</g>
<!-- SimpleDBService -->
<g id="node5" class="node">
<title>SimpleDBService</title>
<polygon fill="none" stroke="#000000" points="287.1413,-108 169.9617,-108 169.9617,-72 287.1413,-72 287.1413,-108"/>
<text text-anchor="middle" x="228.5515" y="-85.8" font-family="Times,serif" font-size="14.00" fill="#000000">SimpleDBService</text>
</g>
<!-- SimpleDB&#45;&gt;SimpleDBService -->
<g id="edge4" class="edge">
<title>SimpleDB-&gt;SimpleDBService</title>
<path fill="none" stroke="#000000" d="M146.3091,-143.8314C160.2485,-134.7074 177.3113,-123.539 192.2746,-113.7449"/>
<polygon fill="#000000" stroke="#000000" points="194.3525,-116.5679 200.8027,-108.1628 190.5189,-110.711 194.3525,-116.5679"/>
</g>
<!-- @antlr4&#45;runtime -->
<g id="node6" class="node">
<title>@antlr4-runtime</title>
<polygon fill="none" stroke="#000000" points="168.3084,-36 58.7946,-36 58.7946,0 168.3084,0 168.3084,-36"/>
<text text-anchor="middle" x="113.5515" y="-13.8" font-family="Times,serif" font-size="14.00" fill="#000000">@antlr4-runtime</text>
</g>
<!-- SQLParser&#45;&gt;@antlr4&#45;runtime -->
<g id="edge5" class="edge">
<title>SQLParser-&gt;@antlr4-runtime</title>
<path fill="none" stroke="#000000" d="M113.5515,-71.8314C113.5515,-64.131 113.5515,-54.9743 113.5515,-46.4166"/>
<polygon fill="#000000" stroke="#000000" points="117.0516,-46.4132 113.5515,-36.4133 110.0516,-46.4133 117.0516,-46.4132"/>
</g>
<!-- @protobuf -->
<g id="node7" class="node">
<title>@protobuf</title>
<polygon fill="none" stroke="#000000" points="265.156,-36 187.947,-36 187.947,0 265.156,0 265.156,-36"/>
<text text-anchor="middle" x="226.5515" y="-13.8" font-family="Times,serif" font-size="14.00" fill="#000000">@protobuf</text>
</g>
<!-- SimpleDBService&#45;&gt;@protobuf -->
<g id="edge6" class="edge">
<title>SimpleDBService-&gt;@protobuf</title>
<path fill="none" stroke="#000000" d="M228.0468,-71.8314C227.8329,-64.131 227.5786,-54.9743 227.3409,-46.4166"/>
<polygon fill="#000000" stroke="#000000" points="230.8394,-46.3122 227.063,-36.4133 223.8421,-46.5066 230.8394,-46.3122"/>
</g>
<!-- @grpc -->
<g id="node8" class="node">
<title>@grpc</title>
<polygon fill="none" stroke="#000000" points="337.5515,-36 283.5515,-36 283.5515,0 337.5515,0 337.5515,-36"/>
<text text-anchor="middle" x="310.5515" y="-13.8" font-family="Times,serif" font-size="14.00" fill="#000000">@grpc</text>
</g>
<!-- SimpleDBService&#45;&gt;@grpc -->
<g id="edge7" class="edge">
<title>SimpleDBService-&gt;@grpc</title>
<path fill="none" stroke="#000000" d="M249.2436,-71.8314C259.2463,-63.0485 271.4065,-52.3712 282.2514,-42.8489"/>
<polygon fill="#000000" stroke="#000000" points="284.6609,-45.3909 289.8661,-36.1628 280.0423,-40.1308 284.6609,-45.3909"/>
</g>
<!-- SimpleDBTest -->
<g id="node9" class="node">
<title>SimpleDBTest</title>
<polygon fill="none" stroke="#000000" points="320.2663,-252 220.8367,-252 220.8367,-216 320.2663,-216 320.2663,-252"/>
<text text-anchor="middle" x="270.5515" y="-229.8" font-family="Times,serif" font-size="14.00" fill="#000000">SimpleDBTest</text>
</g>
<!-- SimpleDBTest&#45;&gt;SimpleDB -->
<g id="edge8" class="edge">
<title>SimpleDBTest-&gt;SimpleDB</title>
<path fill="none" stroke="#000000" d="M232.1955,-215.8314C211.9705,-206.2511 186.9871,-194.4168 165.6,-184.2862"/>
<polygon fill="#000000" stroke="#000000" points="166.9044,-181.0312 156.3687,-179.9134 163.9078,-187.3574 166.9044,-181.0312"/>
</g>
<!-- @googletest -->
<g id="node10" class="node">
<title>@googletest</title>
<polygon fill="none" stroke="#000000" points="387.9908,-180 301.1122,-180 301.1122,-144 387.9908,-144 387.9908,-180"/>
<text text-anchor="middle" x="344.5515" y="-157.8" font-family="Times,serif" font-size="14.00" fill="#000000">@googletest</text>
</g>
<!-- SimpleDBTest&#45;&gt;@googletest -->
<g id="edge9" class="edge">
<title>SimpleDBTest-&gt;@googletest</title>
<path fill="none" stroke="#000000" d="M289.2248,-215.8314C298.0764,-207.219 308.8001,-196.7851 318.441,-187.4048"/>
<polygon fill="#000000" stroke="#000000" points="321.1576,-189.645 325.8841,-180.1628 316.2761,-184.6279 321.1576,-189.645"/>
</g>
<!-- SimpleDBClient -->
<g id="node11" class="node">
<title>SimpleDBClient</title>
<polygon fill="none" stroke="#000000" points="283.3872,-180 173.7158,-180 173.7158,-144 283.3872,-144 283.3872,-180"/>
<text text-anchor="middle" x="228.5515" y="-157.8" font-family="Times,serif" font-size="14.00" fill="#000000">SimpleDBClient</text>
</g>
<!-- SimpleDBClient&#45;&gt;SimpleDBService -->
<g id="edge10" class="edge">
<title>SimpleDBClient-&gt;SimpleDBService</title>
<path fill="none" stroke="#000000" d="M228.5515,-143.8314C228.5515,-136.131 228.5515,-126.9743 228.5515,-118.4166"/>
<polygon fill="#000000" stroke="#000000" points="232.0516,-118.4132 228.5515,-108.4133 225.0516,-118.4133 232.0516,-118.4132"/>
</g>
</g>
</svg>